<?xml version="1.0" encoding="utf-8"?>
<!-- Svg Vector Icons : http://www.onlinewebfonts.com/icon -->
<!DOCTYPE svg PUBLIC "-//W3C//DTD SVG 1.1//EN" "http://www.w3.org/Graphics/SVG/1.1/DTD/svg11.dtd">
<svg version="1.1" xmlns="http://www.w3.org/2000/svg" xmlns:xlink="http://www.w3.org/1999/xlink" x="0px" y="0px" viewBox="0 0 256 256" enable-background="new 0 0 256 256" xml:space="preserve">
<metadata> Svg Vector Icons : http://www.onlinewebfonts.com/icon </metadata>
<g><g><path fill="#000000" d="M178.1,180.2c-0.3-1.9-0.5-3.9-0.9-5.8c-3.3-14.8-11.6-26-24.7-33.6c-1.4-0.8-1.9-1.3-0.4-2.6c8.3-7.3,12.3-16.7,12.6-26.4c0.1-23.9-19.7-41.4-42-38.3c-15.4,2.2-26,11-30.6,25.8c-4.6,14.9-0.7,28,10.7,38.8c1.4,1.3,1.5,1.8-0.2,2.8c-14,8.2-22.4,20.3-25.2,36.2c-0.8,4.5-0.8,4.5,3.6,4.5c0.1,0,0.3,0,0.4,0c1.8,0.3,2.3-0.4,2.5-2.2c2.3-16.2,11.2-27.6,25.8-34.7c1.2-0.6,2.1-0.5,3.3,0c9.6,4,19.3,4,28.9,0c1.2-0.5,2.1-0.5,3.3,0.1c13.7,6.6,22.4,17.1,25.4,32.1c1,5,0.9,5,6,4.8c0.1,0,0.1,0,0.2,0C177.9,181.5,178.2,181.1,178.1,180.2L178.1,180.2z M127.7,140.7c-16.7,0-30.4-13.6-30.5-30.4c-0.1-16.8,13.6-30.5,30.4-30.5c16.7,0,30.4,13.6,30.5,30.4C158.1,126.9,144.4,140.7,127.7,140.7L127.7,140.7z"/><path fill="#000000" d="M246,128c0,65.2-52.8,118-118,118c-65.2,0-118-52.8-118-118C10,62.8,62.8,10,128,10C193.2,10,246,62.8,246,128z M240.8,128c0-62.2-50.6-112.8-112.8-112.8S15.2,65.8,15.2,128S65.8,240.8,128,240.8S240.8,190.2,240.8,128z"/></g></g>
</svg>